<?xml version="1.0" encoding="iso-8859-1"?>
<!-- Generator: Adobe Illustrator 19.0.0, SVG Export Plug-In . SVG Version: 6.00 Build 0)  -->
<svg xmlns="http://www.w3.org/2000/svg" xmlns:xlink="http://www.w3.org/1999/xlink" version="1.1" id="Layer_1" x="0px" y="0px" viewBox="0 0 496 496" style="enable-background:new 0 0 496 496;" xml:space="preserve">
<g>
	<rect x="80" y="392" style="fill:#F9BA48;" width="96" height="72"/>
	<rect x="368" y="392" style="fill:#F9BA48;" width="96" height="72"/>
	<rect x="80" y="72" style="fill:#F9BA48;" width="96" height="72"/>
	<rect x="368" y="72" style="fill:#F9BA48;" width="96" height="72"/>
</g>
<g>
	<path style="fill:#333333;" d="M160,320H0v144c0,17.648,14.352,32,32,32h144c17.648,0,32-14.352,32-32V352h-48V320z M48,464   c0,8.824-7.176,16-16,16s-16-7.176-16-16V336h128v16H48V464z M192,368v96c0,8.824-7.176,16-16,16H59.704   C62.44,475.288,64,469.824,64,464v-96H192z"/>
	<rect x="80" y="384" style="fill:#333333;" width="96" height="16"/>
	<rect x="80" y="416" style="fill:#333333;" width="96" height="16"/>
	<rect x="80" y="448" style="fill:#333333;" width="64" height="16"/>
	<rect x="160" y="448" style="fill:#333333;" width="16" height="16"/>
	<polygon style="fill:#333333;" points="56,304 56,214.952 67.56,222.656 76.44,209.344 48,190.384 19.56,209.344 28.44,222.656    40,214.952 40,304  "/>
	<polygon style="fill:#333333;" points="456,304 456,214.952 467.56,222.656 476.44,209.344 448,190.384 419.56,209.344    428.44,222.656 440,214.952 440,304  "/>
	<polygon style="fill:#333333;" points="282.536,178.152 244,214.12 205.464,178.152 194.536,189.848 232.272,225.064    171.648,281.648 167.584,269.472 152.416,274.528 161.672,302.328 189.472,311.584 194.528,296.416 183.304,292.664 244,236.016    304.696,292.664 293.472,296.416 298.528,311.584 326.328,302.328 335.584,274.528 320.416,269.472 316.352,281.648    255.728,225.064 293.464,189.848  "/>
	<path style="fill:#333333;" d="M32,176h144c17.648,0,32-14.352,32-32V32h-48V0H0v144C0,161.648,14.352,176,32,176z M192,48v96   c0,8.824-7.176,16-16,16H59.704C62.44,155.288,64,149.824,64,144V48H192z M16,16h128v16H48v112c0,8.824-7.176,16-16,16   s-16-7.176-16-16V16z"/>
	<rect x="80" y="64" style="fill:#333333;" width="96" height="16"/>
	<rect x="80" y="96" style="fill:#333333;" width="96" height="16"/>
	<rect x="80" y="128" style="fill:#333333;" width="64" height="16"/>
	<rect x="160" y="128" style="fill:#333333;" width="16" height="16"/>
	<path style="fill:#333333;" d="M448,32V0H288v144c0,17.648,14.352,32,32,32h144c17.648,0,32-14.352,32-32V32H448z M336,144   c0,8.824-7.176,16-16,16s-16-7.176-16-16V16h128v16h-96V144z M480,144c0,8.824-7.176,16-16,16H347.704   c2.736-4.712,4.296-10.176,4.296-16V48h128V144z"/>
	<rect x="368" y="64" style="fill:#333333;" width="96" height="16"/>
	<rect x="368" y="96" style="fill:#333333;" width="96" height="16"/>
	<rect x="368" y="128" style="fill:#333333;" width="64" height="16"/>
	<rect x="448" y="128" style="fill:#333333;" width="16" height="16"/>
	<path style="fill:#333333;" d="M448,320H288v144c0,17.648,14.352,32,32,32h144c17.648,0,32-14.352,32-32V352h-48V320z M336,464   c0,8.824-7.176,16-16,16s-16-7.176-16-16V336h128v16h-96V464z M480,368v96c0,8.824-7.176,16-16,16H347.704   c2.736-4.712,4.296-10.176,4.296-16v-96H480z"/>
	<rect x="368" y="384" style="fill:#333333;" width="96" height="16"/>
	<rect x="368" y="416" style="fill:#333333;" width="96" height="16"/>
	<rect x="368" y="448" style="fill:#333333;" width="64" height="16"/>
	<rect x="448" y="448" style="fill:#333333;" width="16" height="16"/>
</g>
<g>
</g>
<g>
</g>
<g>
</g>
<g>
</g>
<g>
</g>
<g>
</g>
<g>
</g>
<g>
</g>
<g>
</g>
<g>
</g>
<g>
</g>
<g>
</g>
<g>
</g>
<g>
</g>
<g>
</g>
</svg>
