<?xml version="1.0" encoding="iso-8859-1"?>
<!-- Generator: Adobe Illustrator 19.0.0, SVG Export Plug-In . SVG Version: 6.00 Build 0)  -->
<svg xmlns="http://www.w3.org/2000/svg" xmlns:xlink="http://www.w3.org/1999/xlink" version="1.1" id="Layer_1" x="0px" y="0px" viewBox="0 0 496 496" style="enable-background:new 0 0 496 496;" xml:space="preserve">
<g>
	<circle style="fill:#333333;" cx="72" cy="408" r="8"/>
	<path style="fill:#333333;" d="M461.976,122.952l24.456,4.888l3.144-15.688l-46.52-9.304l-18.48,46.176l14.856,5.936l9.248-23.128   C469.176,167.112,480,206.944,480,248c0,127.92-104.08,232-232,232c-52.904,0-104.68-18.32-145.8-51.584l-10.064,12.44   C136.096,476.416,191.448,496,248,496c136.752,0,248-111.248,248-248C496,203.768,484.224,160.88,461.976,122.952z"/>
	<path style="fill:#333333;" d="M393.8,67.584l10.064-12.44C359.904,19.584,304.552,0,248,0C111.248,0,0,111.248,0,248   c0,44.232,11.776,87.12,34.024,125.048L9.568,368.16l-3.136,15.68l46.52,9.304l18.48-46.176l-14.856-5.936L47.32,364.16   C26.824,328.888,16,289.056,16,248C16,120.08,120.08,16,248,16C300.904,16,352.68,34.32,393.8,67.584z"/>
	<circle style="fill:#333333;" cx="424" cy="88" r="8"/>
	<path style="fill:#333333;" d="M104,320h8v16H96v48h208v-16h-64v-16h16v-16h-32v-16h16v-16h-24v-16h16v-8v-8v-16h8v-8v-8v-16h16   v-16h-8v-16h16v8h16v-8h16h16v-16h-16v-16h8v-48H96v32h-8v48h16v16h-8v32h-8v48h16V320z M160,352v16h-16v-16H160z M176,352h16v16   h-16V352z M160,336v-16h16v16H160z M152,304v-16h16v16H152z M168,272v-16h16v16H168z M176,240v-16h16v16H176z M184,208v-16h16v16   H184z M184,160v16h-16v-16H184z M216,160v16h-16v-16H216z M232,160h16v16h-16V160z M240,144v-16h16v16H240z M224,144h-16v-16h16   V144z M192,144h-16v-16h16V144z M160,144h-16v-16h16V144z M152,160v16h-16v-16H152z M168,192v16h-16v-16H168z M160,224v16h-16v-16   H160z M152,256v16h-16v-16H152z M136,288v16h-16v-16H136z M128,320h16v16h-16V320z M112,352h16v16h-16V352z M224,368h-16v-16h16   V368z M208,336h-16v-16h16V336z M200,304h-16v-16h16V304z M216,272h-16v-16h16V272z M224,240h-16v-16h16V240z M232,208h-16v-16h16   V208z M280,176h-16v-16h16V176z M288,144h-16v-16h16V144z M112,128h16v16h-16V128z M104,160h16v16h-16V160z M120,192h16v16h-16V192   z M112,224h16v16h-16V224z M104,256h16v16h-16V256z"/>
</g>
<path style="fill:#F9BA48;" d="M328,384c-57.344,0-104-46.656-104-104s46.656-104,104-104s104,46.656,104,104S385.344,384,328,384z"/>
<path style="fill:#333333;" d="M384,256v-4c0-19.848-16.152-36-36-36h-12v-16h-16v16h-12c-19.848,0-36,16.152-36,36s16.152,36,36,36  h40c11.032,0,20,8.968,20,20s-8.968,20-20,20h-40c-11.032,0-20-8.968-20-20v-4h-16v4c0,19.848,16.152,36,36,36h12v16h16v-16h12  c19.848,0,36-16.152,36-36s-16.152-36-36-36h-40c-11.032,0-20-8.968-20-20s8.968-20,20-20h40c11.032,0,20,8.968,20,20v4H384z"/>
<g>
</g>
<g>
</g>
<g>
</g>
<g>
</g>
<g>
</g>
<g>
</g>
<g>
</g>
<g>
</g>
<g>
</g>
<g>
</g>
<g>
</g>
<g>
</g>
<g>
</g>
<g>
</g>
<g>
</g>
</svg>
