<?xml version="1.0" encoding="iso-8859-1"?>
<!-- Generator: Adobe Illustrator 19.0.0, SVG Export Plug-In . SVG Version: 6.00 Build 0)  -->
<svg xmlns="http://www.w3.org/2000/svg" xmlns:xlink="http://www.w3.org/1999/xlink" version="1.1" id="Layer_1" x="0px" y="0px" viewBox="0 0 496 496" style="enable-background:new 0 0 496 496;" xml:space="preserve">
<path style="fill:#333333;" d="M496,120c0-39.704-32.296-72-72-72H208c-25.616,0-49.512,13.792-62.36,35.992l13.84,8.016  C169.488,74.736,188.072,64,208,64c30.872,0,56,25.128,56,56v136H152v-24h-16v40h136h8h8v176h64V272h144V120z M336,432h-32V272h32  V432z M480,256H352h-64h-8V120c0-22.608-10.496-42.792-26.84-56H424c30.872,0,56,25.128,56,56V256z"/>
<rect y="80" style="fill:#F9BA48;" width="240" height="160"/>
<polygon style="fill:#333333;" points="143.968,155.28 210.344,221.656 221.656,210.344 158.256,146.944 220.032,110.912   211.968,97.088 120,150.744 28.032,97.088 19.968,110.912 81.744,146.944 18.344,210.344 29.656,221.656 96.032,155.28 120,169.256   "/>
<g>
</g>
<g>
</g>
<g>
</g>
<g>
</g>
<g>
</g>
<g>
</g>
<g>
</g>
<g>
</g>
<g>
</g>
<g>
</g>
<g>
</g>
<g>
</g>
<g>
</g>
<g>
</g>
<g>
</g>
</svg>
