<?xml version="1.0" encoding="iso-8859-1"?>
<!-- Generator: Adobe Illustrator 19.0.0, SVG Export Plug-In . SVG Version: 6.00 Build 0)  -->
<svg xmlns="http://www.w3.org/2000/svg" xmlns:xlink="http://www.w3.org/1999/xlink" version="1.1" id="Layer_1" x="0px" y="0px" viewBox="0 0 496 496" style="enable-background:new 0 0 496 496;" xml:space="preserve">
<path style="fill:#333333;" d="M424,200v-64H299.312L264,100.688V71.72c32.424-2.088,56-16.728,56-35.72c0-20.52-27.512-36-64-36  s-64,15.48-64,36c0,18.992,23.576,33.632,56,35.72v28.968L212.688,136H88v64H32v80h128v-32h88v56H80v40h16v-24h320v24h16v-40H264  v-56h88v32h128v-80H424z M208,36c0-8.352,18.256-20,48-20s48,11.648,48,20s-18.256,20-48,20S208,44.352,208,36z M256,115.312  L284.688,144L256,172.688L227.312,144L256,115.312z M144,264H48v-48h96V264z M160,232v-32h-56v-48h108.688L256,195.312L299.312,152  H408v48h-56v32H160z M464,264h-96v-48h96V264z"/>
<g>
	<path style="fill:#F9BA48;" d="M464,496h-80v-46.08c-15.104-12.128-24-30.48-24-49.92c0-35.288,28.712-64,64-64s64,28.712,64,64   c0,19.448-8.896,37.8-24,49.92V496z"/>
	<path style="fill:#F9BA48;" d="M168,440v-48h-20.672c-0.136-0.328-0.272-0.656-0.408-0.984l14.616-14.616L127.6,342.464   l-14.616,14.616c-0.328-0.136-0.656-0.272-0.984-0.408V336H64v20.672c-0.328,0.136-0.656,0.272-0.984,0.408L48.4,342.464   L14.464,376.4l14.616,14.616c-0.136,0.328-0.272,0.656-0.408,0.984H8v48h20.672c0.136,0.328,0.272,0.656,0.408,0.984   l-14.616,14.608L48.4,489.536l14.616-14.616c0.328,0.136,0.656,0.272,0.984,0.408V496h48v-20.672   c0.328-0.136,0.656-0.272,0.984-0.408l14.616,14.616l33.936-33.944l-14.616-14.608c0.136-0.328,0.272-0.656,0.408-0.984H168z    M88,440c-13.256,0-24-10.744-24-24s10.744-24,24-24s24,10.744,24,24S101.256,440,88,440z"/>
</g>
<g>
	<path style="fill:#333333;" d="M432,422.528c9.288-3.312,16-12.112,16-22.528c0-13.232-10.768-24-24-24s-24,10.768-24,24   c0,10.416,6.712,19.216,16,22.528V456h-40v16h96v-16h-40V422.528z M424,392c4.416,0,8,3.584,8,8s-3.584,8-8,8s-8-3.584-8-8   S419.584,392,424,392z"/>
	<path style="fill:#333333;" d="M88,384c-17.648,0-32,14.352-32,32s14.352,32,32,32s32-14.352,32-32S105.648,384,88,384z M88,432   c-8.824,0-16-7.176-16-16s7.176-16,16-16s16,7.176,16,16S96.824,432,88,432z"/>
</g>
<g>
</g>
<g>
</g>
<g>
</g>
<g>
</g>
<g>
</g>
<g>
</g>
<g>
</g>
<g>
</g>
<g>
</g>
<g>
</g>
<g>
</g>
<g>
</g>
<g>
</g>
<g>
</g>
<g>
</g>
</svg>
