<?xml version="1.0" encoding="iso-8859-1"?>
<!-- Generator: Adobe Illustrator 19.0.0, SVG Export Plug-In . SVG Version: 6.00 Build 0)  -->
<svg xmlns="http://www.w3.org/2000/svg" xmlns:xlink="http://www.w3.org/1999/xlink" version="1.1" id="Layer_1" x="0px" y="0px" viewBox="0 0 497.984 497.984" style="enable-background:new 0 0 497.984 497.984;" xml:space="preserve">
<path style="fill:#333333;" d="M378.56,497.984L392.552,456h-200.8c-16.96,0-30.76-13.8-30.76-30.76V320h16v105.24  c0,8.144,6.616,14.76,14.76,14.76H414.76l-7.336,22.016L444.112,440h22.128c8.136,0,14.752-6.616,14.752-14.76V294.76  c0-8.144-6.616-14.76-14.76-14.76h-169.24v-16h169.24c16.96,0,30.76,13.8,30.76,30.76v130.488c0,16.952-13.8,30.752-30.76,30.752  h-17.688L378.56,497.984z"/>
<path style="fill:#F9BA48;" d="M184.992,184h120v113.24c0,16.96-13.8,30.76-30.76,30.76h-9.24l16,40l-72-40H31.752  c-16.96,0-30.76-13.8-30.76-30.76V166.76c0-16.96,13.8-30.76,30.76-30.76h137.24v32L184.992,184z"/>
<g>
	<path style="fill:#333333;" d="M378.56,233.984L392.552,192h-200.8c-16.96,0-30.76-13.8-30.76-30.76V30.76   c0-16.96,13.8-30.76,30.76-30.76H466.24c16.952,0,30.752,13.8,30.752,30.76v130.488c0,16.952-13.8,30.752-30.76,30.752h-17.688   L378.56,233.984z M191.752,16c-8.144,0-14.76,6.616-14.76,14.76v130.488c0,8.136,6.616,14.752,14.76,14.752H414.76l-7.336,22.016   L444.112,176h22.128c8.136,0,14.752-6.616,14.752-14.76V30.76c0-8.144-6.616-14.76-14.76-14.76H191.752z"/>
	<rect x="200.992" y="48" style="fill:#333333;" width="256" height="16"/>
	<rect x="200.992" y="88" style="fill:#333333;" width="256" height="16"/>
	<rect x="200.992" y="128" style="fill:#333333;" width="216" height="16"/>
	<rect x="440.992" y="128" style="fill:#333333;" width="16" height="16"/>
	<rect x="40.992" y="184" style="fill:#333333;" width="104" height="16"/>
	<rect x="40.992" y="224" style="fill:#333333;" width="224" height="16"/>
	<rect x="40.992" y="264" style="fill:#333333;" width="184" height="16"/>
	<rect x="248.992" y="264" style="fill:#333333;" width="16" height="16"/>
	<rect x="328.992" y="312" style="fill:#333333;" width="128" height="16"/>
	<rect x="304.992" y="352" style="fill:#333333;" width="152" height="16"/>
	<rect x="200.992" y="392" style="fill:#333333;" width="216" height="16"/>
	<rect x="440.992" y="392" style="fill:#333333;" width="16" height="16"/>
</g>
<g>
</g>
<g>
</g>
<g>
</g>
<g>
</g>
<g>
</g>
<g>
</g>
<g>
</g>
<g>
</g>
<g>
</g>
<g>
</g>
<g>
</g>
<g>
</g>
<g>
</g>
<g>
</g>
<g>
</g>
</svg>
