<?xml version="1.0" encoding="iso-8859-1"?>
<!-- Generator: Adobe Illustrator 19.0.0, SVG Export Plug-In . SVG Version: 6.00 Build 0)  -->
<svg xmlns="http://www.w3.org/2000/svg" xmlns:xlink="http://www.w3.org/1999/xlink" version="1.1" id="Layer_1" x="0px" y="0px" viewBox="0 0 496 496" style="enable-background:new 0 0 496 496;" xml:space="preserve">
<path style="fill:#F9BA48;" d="M248,272L16,184h128V96h208v88h128L248,272z"/>
<g>
	<path style="fill:#333333;" d="M352,296h-16H204.16L176,331.192L147.84,296H0v200h336h16h144V296H352z M336,480H16V312h124.16   L176,356.808L211.84,312H336V480z M480,480H352V312h128V480z"/>
	<rect x="40" y="392" style="fill:#333333;" width="272" height="16"/>
	<circle style="fill:#333333;" cx="304" cy="440" r="8"/>
	<circle style="fill:#333333;" cx="264" cy="440" r="8"/>
	<circle style="fill:#333333;" cx="224" cy="440" r="8"/>
	<path style="fill:#333333;" d="M352,32H144v48h208V32z M336,64H160V48h176V64z"/>
	<rect x="144" style="fill:#333333;" width="208" height="16"/>
</g>
<g>
</g>
<g>
</g>
<g>
</g>
<g>
</g>
<g>
</g>
<g>
</g>
<g>
</g>
<g>
</g>
<g>
</g>
<g>
</g>
<g>
</g>
<g>
</g>
<g>
</g>
<g>
</g>
<g>
</g>
</svg>
