<?xml version="1.0" encoding="iso-8859-1"?>
<!-- Generator: Adobe Illustrator 19.0.0, SVG Export Plug-In . SVG Version: 6.00 Build 0)  -->
<svg xmlns="http://www.w3.org/2000/svg" xmlns:xlink="http://www.w3.org/1999/xlink" version="1.1" id="Layer_1" x="0px" y="0px" viewBox="0 0 482.408 482.408" style="enable-background:new 0 0 482.408 482.408;" xml:space="preserve">
<g>
	<path style="fill:#F9BA48;" d="M137.204,442.408c-13.232,0-24-10.768-24-24v-192h48v192   C161.204,431.64,150.436,442.408,137.204,442.408z"/>
	<path style="fill:#F9BA48;" d="M345.204,442.408c-13.232,0-24-10.768-24-24v-192h48v192   C369.204,431.64,358.436,442.408,345.204,442.408z"/>
</g>
<g>
	<path style="fill:#333333;" d="M369.204,226.408v-2.936l5.328,0.664c1.08,0.136,2.152,0.2,3.208,0.2   c12.776,0,24.048-9.496,25.896-22.432l3.064-21.392c1.952-13.72-7.16-26.6-20.752-29.32l-1.472-0.296l-15.272-48.376V2.408h-16   v49.448L336.828,0L321.58,4.816l31.624,100.144v42.888l-31.856,6.368l-126.864-29.848L217.068,3.88l-15.72-2.952L175.932,136.44   l145.136,34.152l40.136-8.024l21.608,4.32c5.272,1.056,8.808,6.048,8.048,11.368l-3.064,21.392c-0.776,5.44-5.808,9.32-11.28,8.616   l-46.768-5.832l-174.12-12.008c-28.104-1.928-49.192-25.504-48.024-53.64l5.584-134.032L97.204,2.08L91.62,136.112   c-0.408,9.832,1.304,19.208,4.664,27.76l-20.84,62.536h-2.24v100.44v109.504c0,20.984,17.072,38.056,38.056,38.056h41.944v8h16v-8   h152v8h16v-8h33.944c20.984,0,38.056-17.072,38.056-38.056V326.848v-100.44H369.204z M393.204,326.848   c0,13.984-10.52,25.456-24.04,27.208c-0.192-13.072-10.848-23.648-23.96-23.648c-13.232,0-24,10.768-24,24h-160   c0-13.232-10.768-24-24-24c-13.112,0-23.768,10.576-23.96,23.64c-13.52-1.752-24.04-13.216-24.04-27.2v-84.44h304V326.848z    M353.204,354.408v16c0,4.416-3.584,8-8,8s-8-3.584-8-8v-16c0-4.416,3.584-8,8-8S353.204,349.992,353.204,354.408z    M145.204,354.408v16c0,4.416-3.584,8-8,8s-8-3.584-8-8v-16c0-4.416,3.584-8,8-8S145.204,349.992,145.204,354.408z    M328.212,218.344l24.992,3.128v4.936h-200v-20.184c0.448,0.04,0.88,0.128,1.336,0.16L328.212,218.344z M107.068,182.112   c7.808,9.432,18.152,16.68,30.136,20.744v23.552H92.3L107.068,182.112z M371.148,458.408H111.26   c-12.168,0-22.056-9.888-22.056-22.056v-75.808c6.648,5.448,14.936,8.944,24,9.68v0.184c0,13.232,10.768,24,24,24s24-10.768,24-24   h160c0,13.232,10.768,24,24,24s24-10.768,24-24v-0.184c9.064-0.736,17.352-4.232,24-9.68v75.808   C393.204,448.52,383.316,458.408,371.148,458.408z"/>
	<circle style="fill:#333333;" cx="305.204" cy="42.408" r="8"/>
	<circle style="fill:#333333;" cx="313.204" cy="98.408" r="8"/>
</g>
<g>
</g>
<g>
</g>
<g>
</g>
<g>
</g>
<g>
</g>
<g>
</g>
<g>
</g>
<g>
</g>
<g>
</g>
<g>
</g>
<g>
</g>
<g>
</g>
<g>
</g>
<g>
</g>
<g>
</g>
</svg>
