<?xml version="1.0" encoding="iso-8859-1"?>
<!-- Generator: Adobe Illustrator 19.0.0, SVG Export Plug-In . SVG Version: 6.00 Build 0)  -->
<svg xmlns="http://www.w3.org/2000/svg" xmlns:xlink="http://www.w3.org/1999/xlink" version="1.1" id="Layer_1" x="0px" y="0px" viewBox="0 0 497.168 497.168" style="enable-background:new 0 0 497.168 497.168;" xml:space="preserve">
<polygon style="fill:#333333;" points="448.616,480.584 320.616,480.584 320.616,272.584 304.616,272.584 304.616,480.584   48.616,480.584 48.616,352.584 32.616,352.584 32.616,496.584 312.616,496.584 320.616,496.584 464.616,496.584 464.616,352.584   448.616,352.584 "/>
<polygon style="fill:#F9BA48;" points="496.616,360.584 456.616,264.584 328.616,264.584 296.616,264.584 40.616,264.584   0.616,360.584 288.616,360.584 312.616,302.984 336.616,360.584 "/>
<g>
	<path style="fill:#333333;" d="M132.096,204.776c2.608,4.992,4.896,10.432,6.792,16.152l15.184-5.016   c-2.168-6.544-4.792-12.792-7.808-18.552L132.096,204.776z"/>
	<path style="fill:#333333;" d="M160.608,248.208c-0.008-0.208-0.256-5.264-1.632-12.92l-15.752,2.832   c1.168,6.536,1.4,10.816,1.4,10.856L160.608,248.208z"/>
	<path style="fill:#333333;" d="M405.176,210.4l-13.704-8.264c-3.024,5.008-5.664,10.376-7.84,15.944l14.904,5.832   C400.384,219.176,402.616,214.632,405.176,210.4z"/>
	<path style="fill:#333333;" d="M376.624,248.304l15.984,0.584c0-0.04,0.184-4.168,1.536-10.472l-15.64-3.36   C376.856,242.72,376.64,247.752,376.624,248.304z"/>
	<path style="fill:#333333;" d="M488.456,135.016l-15.688,3.144l5.712,28.576c-17.2-2.312-48.808-3.888-67.072,11.776l0,0   c-3.264,2.8-6.408,5.88-9.336,9.184l11.952,10.624c2.456-2.76,5.08-5.336,7.792-7.656l-5.2-6.08l5.208,6.072   c12.192-10.464,36.176-10.312,52.504-8.36l-16.112,21.488l12.8,9.592l26.152-34.856L488.456,135.016z"/>
	<path style="fill:#333333;" d="M185.824,189.736c3.2,7.928,5.968,15.92,8.224,23.776l15.376-4.424   c-2.408-8.376-5.352-16.904-8.768-25.336L185.824,189.736z"/>
	<path style="fill:#333333;" d="M216.616,248.416c-0.008-0.192-0.12-4.896-1.328-12.936l-15.832,2.392   c1.048,6.896,1.16,10.864,1.16,10.88L216.616,248.416z"/>
	<path style="fill:#333333;" d="M86.272,63.144c17.704,13.392,56.208,45.904,83.4,93.416l6.944-3.976l-6.936,3.976   c1.984,3.472,3.84,6.888,5.584,10.24l14.2-7.36c-1.832-3.552-3.8-7.16-5.912-10.832h0.008   c-26.96-47.096-63.488-79.536-83.552-95.152l22.376-5.064l-3.528-15.608L74.272,42.888l-9.48,44.016l15.64,3.36L86.272,63.144z"/>
	<path style="fill:#333333;" d="M351.504,172.68l-6.872-4.096L351.504,172.68c22.216-37.4,61.784-60.904,80.84-70.592l0.272,26.576   l16-0.16l-0.432-42.856l-34.608-27.344l-9.92,12.56l21.408,16.904c-20.736,10.456-62.84,35.536-87.304,76.72l0,0   c-2.184,3.68-4.192,7.408-6.024,11.136l14.376,7.048C347.752,179.32,349.536,175.976,351.504,172.68z"/>
	<path style="fill:#333333;" d="M338.728,200.336l-15.096-5.296c-2.264,6.448-4.248,13.176-5.896,20.024l15.56,3.752   C334.808,212.48,336.64,206.272,338.728,200.336z"/>
	<path style="fill:#333333;" d="M329.736,237.744l-15.856-2.168c-1.056,7.704-1.24,12.504-1.248,12.712l15.984,0.616   C328.608,248.848,328.784,244.592,329.736,237.744z"/>
	<path style="fill:#333333;" d="M264.352,215.952l15.968-0.872c-0.376-6.936-0.952-14.152-1.72-21.432l-15.904,1.672   C263.48,202.856,264.008,209.768,264.352,215.952z"/>
	<path style="fill:#333333;" d="M260.056,174.768l15.816-2.424c-1.032-6.744-2.256-13.808-3.72-21.128l-15.688,3.128   C257.872,161.432,259.056,168.264,260.056,174.768z"/>
	<path style="fill:#333333;" d="M264.616,248.04l15.968,1.104c0,0,0.312-4.464,0.336-12.496l-16-0.048   C264.896,243.808,264.632,247.888,264.616,248.04z"/>
	<path style="fill:#333333;" d="M202.04,23.624c11.448,16,33.448,50.888,46.872,99.104l7.704-2.144l-7.704,2.16   c1.072,3.832,2.072,7.64,3.008,11.384l15.512-3.872c-0.968-3.88-2-7.832-3.12-11.824l0,0   c-13.496-48.496-34.992-83.904-47.584-101.848h23.888v-16h-44.944l-18.208,36.424l14.312,7.16L202.04,23.624z"/>
	<path style="fill:#333333;" d="M115.232,182.504c2.624,2.384,5.12,5.024,7.424,7.848l12.408-10.112   c-2.808-3.44-5.848-6.664-9.064-9.584c-33.28-30.24-82.464-34.328-105.424-34.432l11.472-28.68l-14.856-5.936L0,144.584   l17.184,42.968l14.856-5.936l-11.736-29.328C40.976,152.432,86.08,156.008,115.232,182.504z"/>
</g>
<g>
</g>
<g>
</g>
<g>
</g>
<g>
</g>
<g>
</g>
<g>
</g>
<g>
</g>
<g>
</g>
<g>
</g>
<g>
</g>
<g>
</g>
<g>
</g>
<g>
</g>
<g>
</g>
<g>
</g>
</svg>
