<?xml version="1.0" encoding="iso-8859-1"?>
<!-- Generator: Adobe Illustrator 19.0.0, SVG Export Plug-In . SVG Version: 6.00 Build 0)  -->
<svg xmlns="http://www.w3.org/2000/svg" xmlns:xlink="http://www.w3.org/1999/xlink" version="1.1" id="Layer_1" x="0px" y="0px" viewBox="0 0 496 496" style="enable-background:new 0 0 496 496;" xml:space="preserve">
<path style="fill:#F9BA48;" d="M192,264v152h192V264H192z M304,337.768V384h-32v-46.232c-4.88-4.392-8-10.688-8-17.768  c0-13.256,10.744-24,24-24s24,10.744,24,24C312,327.08,308.88,333.376,304,337.768z"/>
<g>
	<rect x="352" y="376" style="fill:#333333;" width="32" height="16"/>
	<rect x="192" y="376" style="fill:#333333;" width="32" height="16"/>
	<path style="fill:#333333;" d="M200,264h16v-32c0-39.704,32.296-72,72-72s72,32.296,72,72v32h16v-32c0-48.52-39.48-88-88-88   s-88,39.48-88,88V264z"/>
	<path style="fill:#333333;" d="M288,176c-30.872,0-56,25.128-56,56v32h16v-32c0-22.056,17.944-40,40-40s40,17.944,40,40v32h16v-32   C344,201.128,318.872,176,288,176z"/>
	<path style="fill:#333333;" d="M288,288c-17.648,0-32,14.352-32,32c0,7.728,2.872,15.208,8,21.04V392h48v-50.96   c5.128-5.832,8-13.312,8-21.04C320,302.352,305.648,288,288,288z M298.64,331.832l-2.64,2.384V376h-16v-41.784l-2.64-2.384   c-3.456-3.112-5.36-7.32-5.36-11.832c0-8.824,7.176-16,16-16s16,7.176,16,16C304,324.512,302.096,328.72,298.64,331.832z"/>
	<rect x="352" y="288" style="fill:#333333;" width="32" height="16"/>
	<rect x="192" y="288" style="fill:#333333;" width="32" height="16"/>
	<path style="fill:#333333;" d="M416,112V40H0v368c0,26.472,21.528,48,48,48h400c26.472,0,48-21.528,48-48V112H416z M80,408   c0,17.648-14.352,32-32,32s-32-14.352-32-32V56h384v56H220.944l-16-32H80V408z M480,408c0,17.648-14.352,32-32,32H83.752   C91.36,431.504,96,420.28,96,408V96h99.056l16,32H480V408z"/>
</g>
<g>
</g>
<g>
</g>
<g>
</g>
<g>
</g>
<g>
</g>
<g>
</g>
<g>
</g>
<g>
</g>
<g>
</g>
<g>
</g>
<g>
</g>
<g>
</g>
<g>
</g>
<g>
</g>
<g>
</g>
</svg>
